<?xml version="1.0" encoding="UTF-8" standalone="no"?>
<!DOCTYPE svg PUBLIC "-//W3C//DTD SVG 1.1//EN"
 "http://www.w3.org/Graphics/SVG/1.1/DTD/svg11.dtd">
<!-- Generated by graphviz version 2.44.0 (0)
 -->
<!-- Title: GG Pages: 1 -->
<svg width="218pt" height="188pt"
 viewBox="0.00 0.00 217.97 188.00" xmlns="http://www.w3.org/2000/svg" xmlns:xlink="http://www.w3.org/1999/xlink">
<g id="graph0" class="graph" transform="scale(1 1) rotate(0) translate(4 184)">
<title>GG</title>
<!-- activemq&#45;cpp -->
<g id="node1" class="node">
<title>activemq&#45;cpp</title>
<ellipse fill="none" stroke="#64748b" cx="70.97" cy="-162" rx="48.72" ry="18"/>
<text text-anchor="middle" x="70.97" y="-159.5" font-family="Times-Roman" font-size="10.00" fill="#64748b">activemq&#45;cpp</text>
</g>
<!-- apr -->
<g id="node2" class="node">
<title>apr</title>
<ellipse fill="none" stroke="#64748b" cx="32.97" cy="-90" rx="27" ry="18"/>
<text text-anchor="middle" x="32.97" y="-87.5" font-family="Times-Roman" font-size="10.00" fill="#64748b">apr</text>
</g>
<!-- activemq&#45;cpp&#45;&gt;apr -->
<g id="edge1" class="edge">
<title>activemq&#45;cpp&#45;&gt;apr</title>
<path fill="none" stroke="#64748b" d="M61.77,-144.05C57.22,-135.68 51.64,-125.4 46.61,-116.13"/>
<polygon fill="#64748b" stroke="#64748b" points="49.66,-114.43 41.82,-107.31 43.51,-117.77 49.66,-114.43"/>
</g>
<!-- openssl -->
<g id="node3" class="node">
<title>openssl</title>
<ellipse fill="none" stroke="#64748b" cx="109.97" cy="-90" rx="31.58" ry="18"/>
<text text-anchor="middle" x="109.97" y="-87.5" font-family="Times-Roman" font-size="10.00" fill="#64748b">openssl</text>
</g>
<!-- activemq&#45;cpp&#45;&gt;openssl -->
<g id="edge2" class="edge">
<title>activemq&#45;cpp&#45;&gt;openssl</title>
<path fill="none" stroke="#64748b" d="M80.41,-144.05C85.07,-135.68 90.8,-125.4 95.96,-116.13"/>
<polygon fill="#64748b" stroke="#64748b" points="99.07,-117.75 100.88,-107.31 92.96,-114.34 99.07,-117.75"/>
</g>
<!-- Threads -->
<g id="node4" class="node">
<title>Threads</title>
<ellipse fill="none" stroke="#64748b" cx="32.97" cy="-18" rx="32.93" ry="18"/>
<text text-anchor="middle" x="32.97" y="-15.5" font-family="Times-Roman" font-size="10.00" fill="#64748b">Threads</text>
</g>
<!-- apr&#45;&gt;Threads -->
<g id="edge3" class="edge">
<title>apr&#45;&gt;Threads</title>
<path fill="none" stroke="#64748b" d="M32.97,-71.7C32.97,-63.98 32.97,-54.71 32.97,-46.11"/>
<polygon fill="#64748b" stroke="#64748b" points="36.47,-46.1 32.97,-36.1 29.47,-46.1 36.47,-46.1"/>
</g>
<!-- openssl&#45;&gt;Threads -->
<g id="edge4" class="edge">
<title>openssl&#45;&gt;Threads</title>
<path fill="none" stroke="#64748b" d="M93.64,-74.15C82.92,-64.41 68.72,-51.5 56.75,-40.63"/>
<polygon fill="#64748b" stroke="#64748b" points="59.03,-37.96 49.27,-33.82 54.32,-43.14 59.03,-37.96"/>
</g>
<!-- nasm -->
<g id="node5" class="node">
<title>nasm</title>
<ellipse fill="none" stroke="#64748b" cx="110.97" cy="-18" rx="27" ry="18"/>
<text text-anchor="middle" x="110.97" y="-15.5" font-family="Times-Roman" font-size="10.00" fill="#64748b">nasm</text>
</g>
<!-- openssl&#45;&gt;nasm -->
<g id="edge5" class="edge">
<title>openssl&#45;&gt;nasm</title>
<path fill="none" stroke="#64748b" stroke-dasharray="5,2" d="M110.21,-71.7C110.32,-63.98 110.45,-54.71 110.58,-46.11"/>
<polygon fill="#64748b" stroke="#64748b" points="114.08,-46.15 110.72,-36.1 107.08,-46.05 114.08,-46.15"/>
</g>
<!-- yasm -->
<g id="node6" class="node">
<title>yasm</title>
<ellipse fill="none" stroke="#64748b" cx="182.97" cy="-18" rx="27" ry="18"/>
<text text-anchor="middle" x="182.97" y="-15.5" font-family="Times-Roman" font-size="10.00" fill="#64748b">yasm</text>
</g>
<!-- openssl&#45;&gt;yasm -->
<g id="edge6" class="edge">
<title>openssl&#45;&gt;yasm</title>
<path fill="none" stroke="#64748b" stroke-dasharray="5,2" d="M125.45,-74.15C135.65,-64.37 149.17,-51.4 160.54,-40.5"/>
<polygon fill="#64748b" stroke="#64748b" points="163.21,-42.79 168.01,-33.35 158.37,-37.74 163.21,-42.79"/>
</g>
</g>
</svg>
